<mxfile host="app.diagrams.net" agent="Mozilla/5.0 (Macintosh; Intel Mac OS X 10_15_7) AppleWebKit/537.36 (KHTML, like Gecko) Chrome/129.0.0.0 Safari/537.36" version="24.7.14" pages="2">
  <diagram name="Página-1" id="OkH-derOKXm75nTtoV8R">
    <mxGraphModel dx="1434" dy="795" grid="1" gridSize="10" guides="1" tooltips="1" connect="1" arrows="1" fold="1" page="1" pageScale="1" pageWidth="850" pageHeight="1100" math="0" shadow="0">
      <root>
        <mxCell id="0" />
        <mxCell id="1" parent="0" />
        <mxCell id="WIAHaHR8p0RwV5venA8z-1" value="&lt;p style=&quot;margin:0px;margin-top:4px;text-align:center;&quot;&gt;&lt;i&gt;&amp;lt;&amp;lt;Interface&amp;gt;&amp;gt;&lt;/i&gt;&lt;br&gt;&lt;b&gt;Alquilable&lt;/b&gt;&lt;/p&gt;&lt;hr size=&quot;1&quot; style=&quot;border-style:solid;&quot;&gt;&lt;p style=&quot;margin:0px;margin-left:4px;&quot;&gt;+&amp;nbsp;&lt;/p&gt;&lt;hr size=&quot;1&quot; style=&quot;border-style:solid;&quot;&gt;&lt;p style=&quot;margin:0px;margin-left:4px;&quot;&gt;+ alquilar()&lt;br&gt;+ devolver()&lt;/p&gt;" style="verticalAlign=top;align=left;overflow=fill;html=1;whiteSpace=wrap;" vertex="1" parent="1">
          <mxGeometry x="500" y="110" width="190" height="140" as="geometry" />
        </mxCell>
        <mxCell id="WIAHaHR8p0RwV5venA8z-2" value="Vehiculo" style="swimlane;fontStyle=1;align=center;verticalAlign=top;childLayout=stackLayout;horizontal=1;startSize=26;horizontalStack=0;resizeParent=1;resizeParentMax=0;resizeLast=0;collapsible=1;marginBottom=0;whiteSpace=wrap;html=1;" vertex="1" parent="1">
          <mxGeometry x="170" y="110" width="170" height="138" as="geometry" />
        </mxCell>
        <mxCell id="WIAHaHR8p0RwV5venA8z-3" value="+ marca: String&lt;div&gt;+ modelo: String&lt;br&gt;+ matricula: String&lt;/div&gt;" style="text;strokeColor=none;fillColor=none;align=left;verticalAlign=top;spacingLeft=4;spacingRight=4;overflow=hidden;rotatable=0;points=[[0,0.5],[1,0.5]];portConstraint=eastwest;whiteSpace=wrap;html=1;" vertex="1" parent="WIAHaHR8p0RwV5venA8z-2">
          <mxGeometry y="26" width="170" height="54" as="geometry" />
        </mxCell>
        <mxCell id="WIAHaHR8p0RwV5venA8z-4" value="" style="line;strokeWidth=1;fillColor=none;align=left;verticalAlign=middle;spacingTop=-1;spacingLeft=3;spacingRight=3;rotatable=0;labelPosition=right;points=[];portConstraint=eastwest;strokeColor=inherit;" vertex="1" parent="WIAHaHR8p0RwV5venA8z-2">
          <mxGeometry y="80" width="170" height="8" as="geometry" />
        </mxCell>
        <mxCell id="WIAHaHR8p0RwV5venA8z-5" value="+ method(type): type" style="text;strokeColor=none;fillColor=none;align=left;verticalAlign=top;spacingLeft=4;spacingRight=4;overflow=hidden;rotatable=0;points=[[0,0.5],[1,0.5]];portConstraint=eastwest;whiteSpace=wrap;html=1;" vertex="1" parent="WIAHaHR8p0RwV5venA8z-2">
          <mxGeometry y="88" width="170" height="50" as="geometry" />
        </mxCell>
        <mxCell id="WIAHaHR8p0RwV5venA8z-6" value="Coche" style="swimlane;fontStyle=1;align=center;verticalAlign=top;childLayout=stackLayout;horizontal=1;startSize=26;horizontalStack=0;resizeParent=1;resizeParentMax=0;resizeLast=0;collapsible=1;marginBottom=0;whiteSpace=wrap;html=1;" vertex="1" parent="1">
          <mxGeometry x="70" y="440" width="160" height="86" as="geometry" />
        </mxCell>
        <mxCell id="WIAHaHR8p0RwV5venA8z-7" value="+ field: type" style="text;strokeColor=none;fillColor=none;align=left;verticalAlign=top;spacingLeft=4;spacingRight=4;overflow=hidden;rotatable=0;points=[[0,0.5],[1,0.5]];portConstraint=eastwest;whiteSpace=wrap;html=1;" vertex="1" parent="WIAHaHR8p0RwV5venA8z-6">
          <mxGeometry y="26" width="160" height="26" as="geometry" />
        </mxCell>
        <mxCell id="WIAHaHR8p0RwV5venA8z-8" value="" style="line;strokeWidth=1;fillColor=none;align=left;verticalAlign=middle;spacingTop=-1;spacingLeft=3;spacingRight=3;rotatable=0;labelPosition=right;points=[];portConstraint=eastwest;strokeColor=inherit;" vertex="1" parent="WIAHaHR8p0RwV5venA8z-6">
          <mxGeometry y="52" width="160" height="8" as="geometry" />
        </mxCell>
        <mxCell id="WIAHaHR8p0RwV5venA8z-9" value="+ method(type): type" style="text;strokeColor=none;fillColor=none;align=left;verticalAlign=top;spacingLeft=4;spacingRight=4;overflow=hidden;rotatable=0;points=[[0,0.5],[1,0.5]];portConstraint=eastwest;whiteSpace=wrap;html=1;" vertex="1" parent="WIAHaHR8p0RwV5venA8z-6">
          <mxGeometry y="60" width="160" height="26" as="geometry" />
        </mxCell>
        <mxCell id="WIAHaHR8p0RwV5venA8z-10" value="Moto" style="swimlane;fontStyle=1;align=center;verticalAlign=top;childLayout=stackLayout;horizontal=1;startSize=26;horizontalStack=0;resizeParent=1;resizeParentMax=0;resizeLast=0;collapsible=1;marginBottom=0;whiteSpace=wrap;html=1;" vertex="1" parent="1">
          <mxGeometry x="290" y="438" width="160" height="86" as="geometry" />
        </mxCell>
        <mxCell id="WIAHaHR8p0RwV5venA8z-11" value="+ field: type" style="text;strokeColor=none;fillColor=none;align=left;verticalAlign=top;spacingLeft=4;spacingRight=4;overflow=hidden;rotatable=0;points=[[0,0.5],[1,0.5]];portConstraint=eastwest;whiteSpace=wrap;html=1;" vertex="1" parent="WIAHaHR8p0RwV5venA8z-10">
          <mxGeometry y="26" width="160" height="26" as="geometry" />
        </mxCell>
        <mxCell id="WIAHaHR8p0RwV5venA8z-12" value="" style="line;strokeWidth=1;fillColor=none;align=left;verticalAlign=middle;spacingTop=-1;spacingLeft=3;spacingRight=3;rotatable=0;labelPosition=right;points=[];portConstraint=eastwest;strokeColor=inherit;" vertex="1" parent="WIAHaHR8p0RwV5venA8z-10">
          <mxGeometry y="52" width="160" height="8" as="geometry" />
        </mxCell>
        <mxCell id="WIAHaHR8p0RwV5venA8z-13" value="+ method(type): type" style="text;strokeColor=none;fillColor=none;align=left;verticalAlign=top;spacingLeft=4;spacingRight=4;overflow=hidden;rotatable=0;points=[[0,0.5],[1,0.5]];portConstraint=eastwest;whiteSpace=wrap;html=1;" vertex="1" parent="WIAHaHR8p0RwV5venA8z-10">
          <mxGeometry y="60" width="160" height="26" as="geometry" />
        </mxCell>
        <mxCell id="WIAHaHR8p0RwV5venA8z-15" value="Extends" style="endArrow=block;endSize=16;endFill=0;html=1;rounded=0;exitX=0.5;exitY=0;exitDx=0;exitDy=0;" edge="1" parent="1" source="WIAHaHR8p0RwV5venA8z-6" target="WIAHaHR8p0RwV5venA8z-2">
          <mxGeometry width="160" relative="1" as="geometry">
            <mxPoint x="480" y="410" as="sourcePoint" />
            <mxPoint x="640" y="410" as="targetPoint" />
          </mxGeometry>
        </mxCell>
        <mxCell id="WIAHaHR8p0RwV5venA8z-16" value="Extends" style="endArrow=block;endSize=16;endFill=0;html=1;rounded=0;exitX=0.463;exitY=0.012;exitDx=0;exitDy=0;exitPerimeter=0;" edge="1" parent="1" source="WIAHaHR8p0RwV5venA8z-10" target="WIAHaHR8p0RwV5venA8z-2">
          <mxGeometry width="160" relative="1" as="geometry">
            <mxPoint x="480" y="410" as="sourcePoint" />
            <mxPoint x="640" y="410" as="targetPoint" />
          </mxGeometry>
        </mxCell>
        <mxCell id="WIAHaHR8p0RwV5venA8z-17" value="" style="endArrow=block;dashed=1;endFill=0;endSize=12;html=1;rounded=0;exitX=0.5;exitY=0;exitDx=0;exitDy=0;entryX=0.605;entryY=0.979;entryDx=0;entryDy=0;entryPerimeter=0;" edge="1" parent="1" source="WIAHaHR8p0RwV5venA8z-10" target="WIAHaHR8p0RwV5venA8z-1">
          <mxGeometry width="160" relative="1" as="geometry">
            <mxPoint x="480" y="410" as="sourcePoint" />
            <mxPoint x="640" y="410" as="targetPoint" />
          </mxGeometry>
        </mxCell>
        <mxCell id="WIAHaHR8p0RwV5venA8z-18" value="" style="endArrow=block;dashed=1;endFill=0;endSize=12;html=1;rounded=0;exitX=0.65;exitY=-0.012;exitDx=0;exitDy=0;exitPerimeter=0;entryX=0.005;entryY=0.864;entryDx=0;entryDy=0;entryPerimeter=0;" edge="1" parent="1" source="WIAHaHR8p0RwV5venA8z-6" target="WIAHaHR8p0RwV5venA8z-1">
          <mxGeometry width="160" relative="1" as="geometry">
            <mxPoint x="480" y="410" as="sourcePoint" />
            <mxPoint x="640" y="410" as="targetPoint" />
          </mxGeometry>
        </mxCell>
      </root>
    </mxGraphModel>
  </diagram>
  <diagram id="CJSpC1d5RbB5mGBfjIGT" name="Página-2">
    <mxGraphModel dx="1434" dy="795" grid="1" gridSize="10" guides="1" tooltips="1" connect="1" arrows="1" fold="1" page="1" pageScale="1" pageWidth="850" pageHeight="1100" math="0" shadow="0">
      <root>
        <mxCell id="0" />
        <mxCell id="1" parent="0" />
        <mxCell id="4uSJFrKNr2pTznhDGq3t-3" style="edgeStyle=orthogonalEdgeStyle;rounded=0;orthogonalLoop=1;jettySize=auto;html=1;" edge="1" parent="1" source="4uSJFrKNr2pTznhDGq3t-1" target="4uSJFrKNr2pTznhDGq3t-2">
          <mxGeometry relative="1" as="geometry" />
        </mxCell>
        <mxCell id="4uSJFrKNr2pTznhDGq3t-5" value="CrearReserva" style="edgeLabel;html=1;align=center;verticalAlign=middle;resizable=0;points=[];" vertex="1" connectable="0" parent="4uSJFrKNr2pTznhDGq3t-3">
          <mxGeometry x="0.0036" relative="1" as="geometry">
            <mxPoint y="-10" as="offset" />
          </mxGeometry>
        </mxCell>
        <mxCell id="4uSJFrKNr2pTznhDGq3t-1" value="Usuario&lt;br&gt;Registrado" style="shape=umlActor;verticalLabelPosition=bottom;verticalAlign=top;html=1;" vertex="1" parent="1">
          <mxGeometry x="50" y="200" width="30" height="60" as="geometry" />
        </mxCell>
        <mxCell id="4uSJFrKNr2pTznhDGq3t-7" style="edgeStyle=orthogonalEdgeStyle;rounded=0;orthogonalLoop=1;jettySize=auto;html=1;curved=0;" edge="1" parent="1">
          <mxGeometry relative="1" as="geometry">
            <mxPoint x="219.5" y="260" as="sourcePoint" />
            <mxPoint x="429.5" y="260" as="targetPoint" />
          </mxGeometry>
        </mxCell>
        <mxCell id="4uSJFrKNr2pTznhDGq3t-8" value="CrearReserva" style="edgeLabel;html=1;align=center;verticalAlign=middle;resizable=0;points=[];" vertex="1" connectable="0" parent="4uSJFrKNr2pTznhDGq3t-7">
          <mxGeometry x="0.1571" y="-2" relative="1" as="geometry">
            <mxPoint x="1" y="-12" as="offset" />
          </mxGeometry>
        </mxCell>
        <mxCell id="4uSJFrKNr2pTznhDGq3t-2" value=":ReservaController" style="shape=umlLifeline;perimeter=lifelinePerimeter;whiteSpace=wrap;html=1;container=1;dropTarget=0;collapsible=0;recursiveResize=0;outlineConnect=0;portConstraint=eastwest;newEdgeStyle={&quot;curved&quot;:0,&quot;rounded&quot;:0};" vertex="1" parent="1">
          <mxGeometry x="160" y="80" width="120" height="300" as="geometry" />
        </mxCell>
        <mxCell id="4uSJFrKNr2pTznhDGq3t-12" style="edgeStyle=orthogonalEdgeStyle;rounded=0;orthogonalLoop=1;jettySize=auto;html=1;curved=0;" edge="1" parent="1">
          <mxGeometry relative="1" as="geometry">
            <mxPoint x="429.5" y="330" as="sourcePoint" />
            <mxPoint x="629.5" y="330" as="targetPoint" />
          </mxGeometry>
        </mxCell>
        <mxCell id="4uSJFrKNr2pTznhDGq3t-13" value="obtenerVehiculo" style="edgeLabel;html=1;align=center;verticalAlign=middle;resizable=0;points=[];" vertex="1" connectable="0" parent="4uSJFrKNr2pTznhDGq3t-12">
          <mxGeometry x="0.275" y="-2" relative="1" as="geometry">
            <mxPoint x="-16" y="-12" as="offset" />
          </mxGeometry>
        </mxCell>
        <mxCell id="4uSJFrKNr2pTznhDGq3t-15" style="edgeStyle=orthogonalEdgeStyle;rounded=0;orthogonalLoop=1;jettySize=auto;html=1;curved=0;" edge="1" parent="1">
          <mxGeometry relative="1" as="geometry">
            <mxPoint x="440" y="370" as="sourcePoint" />
            <mxPoint x="790" y="370" as="targetPoint" />
            <Array as="points">
              <mxPoint x="430" y="370" />
              <mxPoint x="430" y="371" />
              <mxPoint x="591" y="371" />
              <mxPoint x="591" y="370" />
            </Array>
          </mxGeometry>
        </mxCell>
        <mxCell id="4uSJFrKNr2pTznhDGq3t-16" value="guardarReserva" style="edgeLabel;html=1;align=center;verticalAlign=middle;resizable=0;points=[];" vertex="1" connectable="0" parent="4uSJFrKNr2pTznhDGq3t-15">
          <mxGeometry x="-0.2543" y="1" relative="1" as="geometry">
            <mxPoint x="141" y="-9" as="offset" />
          </mxGeometry>
        </mxCell>
        <mxCell id="4uSJFrKNr2pTznhDGq3t-6" value=":ReservaService" style="shape=umlLifeline;perimeter=lifelinePerimeter;whiteSpace=wrap;html=1;container=1;dropTarget=0;collapsible=0;recursiveResize=0;outlineConnect=0;portConstraint=eastwest;newEdgeStyle={&quot;curved&quot;:0,&quot;rounded&quot;:0};" vertex="1" parent="1">
          <mxGeometry x="380" y="80" width="100" height="430" as="geometry" />
        </mxCell>
        <mxCell id="4uSJFrKNr2pTznhDGq3t-9" style="edgeStyle=orthogonalEdgeStyle;rounded=0;orthogonalLoop=1;jettySize=auto;html=1;curved=0;" edge="1" parent="1" source="4uSJFrKNr2pTznhDGq3t-6" target="4uSJFrKNr2pTznhDGq3t-6">
          <mxGeometry relative="1" as="geometry">
            <Array as="points">
              <mxPoint x="480" y="295" />
            </Array>
          </mxGeometry>
        </mxCell>
        <mxCell id="4uSJFrKNr2pTznhDGq3t-10" value="validarReserva" style="edgeLabel;html=1;align=center;verticalAlign=middle;resizable=0;points=[];" vertex="1" connectable="0" parent="4uSJFrKNr2pTznhDGq3t-9">
          <mxGeometry x="-0.5217" y="-1" relative="1" as="geometry">
            <mxPoint y="-21" as="offset" />
          </mxGeometry>
        </mxCell>
        <mxCell id="4uSJFrKNr2pTznhDGq3t-11" value=":VehiculoService" style="shape=umlLifeline;perimeter=lifelinePerimeter;whiteSpace=wrap;html=1;container=1;dropTarget=0;collapsible=0;recursiveResize=0;outlineConnect=0;portConstraint=eastwest;newEdgeStyle={&quot;curved&quot;:0,&quot;rounded&quot;:0};" vertex="1" parent="1">
          <mxGeometry x="580" y="80" width="100" height="430" as="geometry" />
        </mxCell>
        <mxCell id="4uSJFrKNr2pTznhDGq3t-14" value=":reservaRepository" style="shape=umlLifeline;perimeter=lifelinePerimeter;whiteSpace=wrap;html=1;container=1;dropTarget=0;collapsible=0;recursiveResize=0;outlineConnect=0;portConstraint=eastwest;newEdgeStyle={&quot;curved&quot;:0,&quot;rounded&quot;:0};" vertex="1" parent="1">
          <mxGeometry x="730" y="80" width="100" height="420" as="geometry" />
        </mxCell>
      </root>
    </mxGraphModel>
  </diagram>
</mxfile>
